<svg width="18" height="18" viewBox="0 0 18 18" fill="none" xmlns="http://www.w3.org/2000/svg">
<path d="M9 18C7.755 18 6.585 17.7637 5.49 17.2912C4.395 16.8187 3.4425 16.1775 2.6325 15.3675C1.8225 14.5575 1.18125 13.605 0.70875 12.51C0.23625 11.415 0 10.245 0 9C0 7.755 0.23625 6.585 0.70875 5.49C1.18125 4.395 1.8225 3.4425 2.6325 2.6325C3.4425 1.8225 4.395 1.18125 5.49 0.70875C6.585 0.23625 7.755 0 9 0C10.245 0 11.415 0.23625 12.51 0.70875C13.605 1.18125 14.5575 1.8225 15.3675 2.6325C16.1775 3.4425 16.8187 4.395 17.2912 5.49C17.7637 6.585 18 7.755 18 9C18 10.245 17.7637 11.415 17.2912 12.51C16.8187 13.605 16.1775 14.5575 15.3675 15.3675C14.5575 16.1775 13.605 16.8187 12.51 17.2912C11.415 17.7637 10.245 18 9 18ZM9 16.2C11.01 16.2 12.7125 15.5025 14.1075 14.1075C15.5025 12.7125 16.2 11.01 16.2 9C16.2 6.99 15.5025 5.2875 14.1075 3.8925C12.7125 2.4975 11.01 1.8 9 1.8C6.99 1.8 5.2875 2.4975 3.8925 3.8925C2.4975 5.2875 1.8 6.99 1.8 9C1.8 11.01 2.4975 12.7125 3.8925 14.1075C5.2875 15.5025 6.99 16.2 9 16.2ZM9 14.4C7.5 14.4 6.225 13.875 5.175 12.825C4.125 11.775 3.6 10.5 3.6 9C3.6 7.5 4.125 6.225 5.175 5.175C6.225 4.125 7.5 3.6 9 3.6C10.5 3.6 11.775 4.125 12.825 5.175C13.875 6.225 14.4 7.5 14.4 9C14.4 10.5 13.875 11.775 12.825 12.825C11.775 13.875 10.5 14.4 9 14.4ZM9 12.6C9.99 12.6 10.8375 12.2475 11.5425 11.5425C12.2475 10.8375 12.6 9.99 12.6 9C12.6 8.01 12.2475 7.1625 11.5425 6.4575C10.8375 5.7525 9.99 5.4 9 5.4C8.01 5.4 7.1625 5.7525 6.4575 6.4575C5.7525 7.1625 5.4 8.01 5.4 9C5.4 9.99 5.7525 10.8375 6.4575 11.5425C7.1625 12.2475 8.01 12.6 9 12.6ZM9 10.8C8.505 10.8 8.08125 10.6238 7.72875 10.2713C7.37625 9.91875 7.2 9.495 7.2 9C7.2 8.505 7.37625 8.08125 7.72875 7.72875C8.08125 7.37625 8.505 7.2 9 7.2C9.495 7.2 9.91875 7.37625 10.2713 7.72875C10.6238 8.08125 10.8 8.505 10.8 9C10.8 9.495 10.6238 9.91875 10.2713 10.2713C9.91875 10.6238 9.495 10.8 9 10.8Z" fill="#EF582C"/>
</svg>
