<svg width="17" height="17" viewBox="0 0 17 17" fill="none" xmlns="http://www.w3.org/2000/svg">
<path fill-rule="evenodd" clip-rule="evenodd" d="M8.22752 8.50174C8.00848 8.37312 7.77056 8.27977 7.52249 8.22513V6.39713C7.77055 6.34258 8.00848 6.24931 8.22752 6.12074L8.96719 5.69352V8.92873L8.22752 8.50174ZM15.2835 13.0701L16.5422 14.3291C16.8358 14.6226 17.0007 15.0208 17.0007 15.4359C17.0007 15.8511 16.8358 16.2492 16.5422 16.5428C16.2487 16.8363 15.8505 17.0013 15.4354 17.0013C15.0202 17.0013 14.6221 16.8363 14.3285 16.5428L13.0698 15.2839L15.2835 13.0701ZM10.2861 6.78003H10.0297V4.29251C10.0297 4.15162 9.97372 4.01649 9.87409 3.91686C9.77446 3.81723 9.63933 3.76126 9.49844 3.76126C9.35754 3.76126 9.22242 3.81723 9.12279 3.91686C9.02316 4.01649 8.96719 4.15162 8.96719 4.29251V4.46663L7.69614 5.20042C7.48361 5.32829 7.23936 5.39373 6.99137 5.38925H5.1399C4.8275 5.38958 4.528 5.51383 4.3071 5.73472C4.0862 5.95562 3.96195 6.25513 3.96162 6.56752V8.05443C3.96192 8.36468 4.08448 8.66231 4.30272 8.88281C4.52097 9.10332 4.81732 9.22894 5.12755 9.23244V10.9388C5.12755 11.0797 5.18353 11.2149 5.28319 11.3145C5.38284 11.4142 5.518 11.4702 5.65893 11.4702C5.79986 11.4702 5.93502 11.4142 6.03467 11.3145C6.13433 11.2149 6.19031 11.0797 6.19031 10.9388V9.23284H6.9914C7.23943 9.22835 7.4837 9.29387 7.69617 9.4219L8.96722 10.1557V10.3301C8.96722 10.471 9.02319 10.6061 9.12282 10.7057C9.22245 10.8053 9.35758 10.8613 9.49847 10.8613C9.63937 10.8613 9.77449 10.8053 9.87412 10.7057C9.97375 10.6061 10.0297 10.471 10.0297 10.3301V7.84253H10.2861C10.427 7.84253 10.5622 7.78655 10.6618 7.68693C10.7614 7.5873 10.8174 7.45217 10.8174 7.31128C10.8174 7.17038 10.7614 7.03525 10.6618 6.93562C10.5622 6.836 10.427 6.78003 10.2861 6.78003H10.2861ZM14.5323 12.3188L13.9938 11.7804C15.0237 10.203 15.4324 8.29995 15.1411 6.4388C14.8498 4.57766 13.8792 2.89048 12.4166 1.70316C10.9541 0.515827 9.1035 -0.0874097 7.22222 0.00995979C5.34093 0.107329 3.56247 0.898397 2.23034 2.23037C0.898593 3.56252 0.107705 5.34089 0.0104172 7.22204C-0.0868707 9.10319 0.516343 10.9537 1.70356 12.4161C2.89078 13.8785 4.57779 14.8492 6.43877 15.1405C8.29976 15.4319 10.2027 15.0234 11.7801 13.9939L12.3187 14.5325C13.0566 13.7946 13.7944 13.0567 14.5323 12.3188ZM2.9814 12.2493C3.5899 12.8579 4.31231 13.3407 5.1074 13.67C5.90248 13.9994 6.75465 14.1689 7.61526 14.1689C8.47586 14.1689 9.32803 13.9994 10.1231 13.67C10.9182 13.3407 11.6406 12.8579 12.2491 12.2493C14.8044 9.6945 14.8044 5.53673 12.2491 2.98185C11.6411 2.37127 10.9185 1.88661 10.1229 1.55562C9.32734 1.22462 8.47426 1.05378 7.61255 1.05289C6.75084 1.05199 5.89742 1.22106 5.10113 1.5504C4.30484 1.87974 3.58132 2.3629 2.97199 2.97221C2.36266 3.58153 1.87948 4.30503 1.55012 5.10132C1.22076 5.8976 1.05167 6.75102 1.05255 7.61273C1.05342 8.47444 1.22424 9.32752 1.55521 10.1231C1.88619 10.9187 2.37083 11.6413 2.9814 12.2493Z" fill="#EF582C"/>
</svg>
